<?xml version="1.0" standalone="yes"?>
<svg xmlns="http://www.w3.org/2000/svg" width="87" height="114">
<path style="fill:#000000; stroke:none;" d="M0 0L0 70C1.94167 65.5102 1.43011 61.345 7 60C6.51579 56.9459 6.77438 56.1372 9 54C7.37281 49.3991 11.1283 46.8129 15 45L13 49L18 47C16.8607 45.9846 16.3884 45.6913 15 45C18.2103 39.1485 26.3672 34.3632 33 34C28.6066 29.3987 25.2092 28.2715 19 29C23.5242 24.485 28.1147 25.2569 34 26C29.7026 19.1284 24.4193 12.5326 17 9L21 8L18 3C23.9787 5.48981 29.0949 9.51673 35 12C35.7403 7.82609 35.3274 4.18369 35 0L0 0z"/>
<path style="fill:#00ff00; stroke:none;" d="M35 0L36 1L35 0z"/>
<path style="fill:#0cfa3e; stroke:none;" d="M36 0C36.0165 4.65536 35.7747 8.12798 41 9C40.7647 5.4446 39.8495 3.04123 38 0L36 0z"/>
<path style="fill:#000000; stroke:none;" d="M38 0C40.2561 4.3114 41.5353 8.40998 43 13C44.7887 9.02396 45.8411 4.24744 47 0L38 0z"/>
<path style="fill:#0cf841; stroke:none;" d="M47 0C45.6352 3.74468 45.0356 7.01599 45 11L51 11C50.9644 7.01597 50.3648 3.7447 49 0L47 0z"/>
<path style="fill:#000000; stroke:none;" d="M49 0C50.1686 4.37149 51.6285 8.45821 52 13C55.9825 8.81993 60.5217 4.60755 65 1C64.2229 3.48874 63.1828 5.67187 62 8C65.9308 7.30148 69.4 5.70347 73 4C70.5907 8.64383 67.1325 11.8493 63 15C68.3544 15.1678 73.4981 11.4834 79 11C75.8372 13.6184 72.4199 15.735 69 18C74.7197 18.7251 81.1478 16.2513 87 16L87 0L49 0z"/>
<path style="fill:#3fff3f; stroke:none;" d="M35 1L35 4C35.6961 2.4463 35.6961 2.55369 35 1z"/>
<path style="fill:#0ef542; stroke:none;" d="M63 1C61.3116 3.67221 59.8241 5.94984 59 9C62.7089 7.17112 64.1824 5.0423 65 1L63 1z"/>
<path style="fill:#007f7f; stroke:none;" d="M39 2L40 3L39 2z"/>
<path style="fill:#7fff7f; stroke:none;" d="M62 2L63 3L62 2z"/>
<path style="fill:#0cef52; stroke:none;" d="M18 3C19.1535 5.24892 19.7511 5.84645 22 7C20.1994 7.56181 18.8782 7.82413 17 8C20.9251 11.9171 24.048 11.7524 29 10C26.6666 5.8883 22.4273 4.27544 18 3z"/>
<path style="fill:#007f7f; stroke:none;" d="M35 4L36 5L35 4M72 4L73 5L72 4M69 5L70 6L69 5z"/>
<path style="fill:#0cf24d; stroke:none;" d="M62 9C66.7876 11.0037 70.5318 9.39912 73 5C68.9371 5.60899 65.5641 6.97404 62 9z"/>
<path style="fill:#0cea5c; stroke:none;" d="M41 6C39.4675 8.26958 38.7393 8.27988 36 8C36.337 12.4544 37.623 14.7302 42 16C41.9996 12.5856 42.3274 9.16327 41 6z"/>
<path style="fill:#00ff00; stroke:none;" d="M21 7L22 8L21 7z"/>
<path style="fill:#0ce566; stroke:none;" d="M44 7C44.0053 13.9203 44.4774 16.9108 52 17L52 8C51.3152 9.24834 51.2512 9.54843 51 11L45 11C44.8259 9.31478 44.683 8.50606 44 7z"/>
<path style="fill:#0ced57; stroke:none;" d="M58 7C55.7838 8.92625 54.3057 10.3914 53 13C56.9206 12.6969 60.2616 11.235 58 7z"/>
<path style="fill:#000000; stroke:none;" d="M22.6667 8.33334C22.2222 8.77774 23.2778 8.72223 23.3333 8.66666C23.7778 8.22221 22.7222 8.27779 22.6667 8.33334z"/>
<path style="fill:#25d961; stroke:none;" d="M61 8C60.0427 9.51666 59.6128 10.3385 59 12C60.63 10.4852 61.1631 10.1447 61 8z"/>
<path style="fill:#00ff00; stroke:none;" d="M62 8L63 9L62 8M25 9L26 10L25 9z"/>
<path style="fill:#0ce761; stroke:none;" d="M23 12C25.7285 14.7871 28.1734 14.9556 32 15C31.4549 13.3648 31.6352 13.5451 30 13C31.0356 11.8137 31.3386 11.3964 32 10C28.6871 9.76906 26.171 11.0321 23 12z"/>
<path style="fill:#00ffff; stroke:none;" d="M35 9L36 10L35 9z"/>
<path style="fill:#00ff00; stroke:none;" d="M26.6667 10.3333C26.2222 10.7777 27.2778 10.7222 27.3333 10.6667C27.7778 10.2222 26.7222 10.2778 26.6667 10.3333z"/>
<path style="fill:#00ff7f; stroke:none;" d="M35.3333 10.6667C35.2778 10.7222 35.2222 11.7778 35.6667 11.3333C35.7222 11.2778 35.7778 10.2222 35.3333 10.6667z"/>
<path style="fill:#007f7f; stroke:none;" d="M53 10L54 11L53 10z"/>
<path style="fill:#0cea5c; stroke:none;" d="M59 14C63.4352 13.9476 66.091 13.4924 69 10C64.5795 10.0156 61.2889 9.84918 59 14z"/>
<path style="fill:#7fff7f; stroke:none;" d="M21 11L22 12L21 11z"/>
<path style="fill:#000000; stroke:none;" d="M28 11L29 12L28 11z"/>
<path style="fill:#13db6b; stroke:none;" d="M32 11L31 12C33.2985 14.9707 35.4954 16.6407 39 18C37.8343 14.1111 35.5445 12.7895 32 11z"/>
<path style="fill:#0ce566; stroke:none;" d="M63 16C68.9821 18.5093 74.0597 15.3159 79 12C73.8238 9.98452 67.5931 13.5539 63 16z"/>
<path style="fill:#000000; stroke:none;" d="M30 12L31 13L30 12z"/>
<path style="fill:#3fbf66; stroke:none;" d="M34.6667 12.3333C34.2222 12.7778 35.2778 12.7222 35.3333 12.6667C35.7778 12.2222 34.7222 12.2778 34.6667 12.3333z"/>
<path style="fill:#007f7f; stroke:none;" d="M42 12L43 13L42 12z"/>
<path style="fill:#000000; stroke:none;" d="M58 12L59 13L58 12M31 13L32 14L31 13z"/>
<path style="fill:#48b66d; stroke:none;" d="M42 13L42 17C43.0811 15.542 43.436 14.752 44 13L42 13z"/>
<path style="fill:#007f7f; stroke:none;" d="M52 13L53 14L52 13z"/>
<path style="fill:#10d775; stroke:none;" d="M53 13C54.3994 23.2711 62.7181 20.9666 70 18C67.1103 16.787 64.1259 17.0017 61 17C62.1863 15.8137 62.5838 15.4721 64 15C60.5395 13.337 56.8151 13.0788 53 13z"/>
<path style="fill:#7fff7f; stroke:none;" d="M76 13L77 14L76 13z"/>
<path style="fill:#000000; stroke:none;" d="M32 14L33 15L32 14z"/>
<path style="fill:#3cb478; stroke:none;" d="M52 14L52 18C52.7102 16.2405 52.7102 15.7595 52 14z"/>
<path style="fill:#3fbf7f; stroke:none;" d="M56.3333 14.6667C56.2778 14.7222 56.2222 15.7778 56.6667 15.3333C56.7222 15.2778 56.7778 14.2222 56.3333 14.6667z"/>
<path style="fill:#0cdc76; stroke:none;" d="M26 15C28.6264 19.8985 31.6146 20.9364 37 21C34.3736 16.1015 31.3854 15.0636 26 15z"/>
<path style="fill:#00ff00; stroke:none;" d="M33 15L34 16L33 15z"/>
<path style="fill:#000000; stroke:none;" d="M43 15C42.4549 16.6352 42.6352 16.4549 41 17C42.1702 19.0749 42.6917 20.6371 43 23C40.7481 20.7943 38.5763 18.8066 36 17C38.5072 20.5282 41.152 23.0031 45 25C44.209 21.6795 44.3087 18.1118 43 15z"/>
<path style="fill:#33b27f; stroke:none;" d="M62.3333 15.6667C62.2778 15.7222 62.2222 16.7778 62.6667 16.3333C62.7223 16.2777 62.7778 15.2222 62.3333 15.6667z"/>
<path style="fill:#007f7f; stroke:none;" d="M26 16L27 17L26 16z"/>
<path style="fill:#55aa55; stroke:none;" d="M34 16L35 17L34 16z"/>
<path style="fill:#2fbf7f; stroke:none;" d="M35.3333 16.6667C35.2778 16.7222 35.2222 17.7778 35.6667 17.3333C35.7222 17.2778 35.7778 16.2222 35.3333 16.6667z"/>
<path style="fill:#007f7f; stroke:none;" d="M39 16L40 17L39 16z"/>
<path style="fill:#0dd580; stroke:none;" d="M38 18C39.5489 20.1357 40.8643 21.4511 43 23C43 19.108 41.6055 17.5778 42 16C40.3385 16.6128 39.5166 17.0427 38 18z"/>
<path style="fill:#0cd780; stroke:none;" d="M44 16L44 22C46.7058 20.4935 48.9127 20.0905 52 20L52 17C49.2155 16.9417 46.7092 16.6479 44 16z"/>
<path style="fill:#000000; stroke:none;" d="M55 16L56 17L55 16M61 16L62 17L61 16z"/>
<path style="fill:#007f7f; stroke:none;" d="M81 16C83.0521 16.8742 84.7472 16.9528 87 17C84.9479 16.1257 83.2528 16.0472 81 16z"/>
<path style="fill:#000000; stroke:none;" d="M53 17C52.1205 20.694 52.0025 24.2143 52 28C53.7968 28 53.5215 27.9857 55 27C53.3563 23.5228 54.5642 20.6772 55 17L53 17z"/>
<path style="fill:#0cd680; stroke:none;" d="M69 19C74.4537 21.2885 81.2965 19.7208 87 19L87 17C80.6826 17 75.0699 17.0759 69 19z"/>
<path style="fill:#0cc79e; stroke:none;" d="M36 18C36 19.7968 36.0143 19.5215 37 21L31 21C35.1859 28.6273 51.6366 31.0665 52 20L45 20L45 25L36 18z"/>
<path style="fill:#00ffff; stroke:none;" d="M52 18L53 19L52 18z"/>
<path style="fill:#000000; stroke:none;" d="M58 18L59 19L58 18z"/>
<path style="fill:#33bb88; stroke:none;" d="M68.3333 18.6667C68.2778 18.7222 68.2222 19.7778 68.6667 19.3333C68.7222 19.2778 68.7778 18.2222 68.3333 18.6667z"/>
<path style="fill:#7fff7f; stroke:none;" d="M70 18L71 19L70 18z"/>
<path style="fill:#000000; stroke:none;" d="M56 19L57 20L56 19z"/>
<path style="fill:#0cce90; stroke:none;" d="M66 19C64.4614 22.0772 64.7206 18.397 64 22C60.65 21.0096 57.486 21.0019 54 21L54 23C62.9452 22.8894 71.3106 23.299 80 21C75.7207 19.2043 70.5812 20.0907 66 19z"/>
<path style="fill:#000000; stroke:none;" d="M67 19L68 20L67 19M59 33C68.7209 32.7725 78.6758 25.2577 86 35C81.6192 34.1867 77.3895 33.6036 73 34.7639C69.9683 35.5653 67.1173 37.5754 64 37.9367C61.0258 38.2815 57.814 36.8122 55 36C59.9683 40.8834 68.3007 40.9107 66 50C73.4054 53.5389 72.6266 57.87 69 64L74 61C75.3992 65.414 75.9872 69.3728 76 74L70 74C69.9372 71.067 69.9896 67.9492 68.142 65.4792C65.7889 62.3333 61.9997 61.4731 60 58C56.8114 60.343 54.8687 61.0309 51 60C50.4609 62.6681 49.7134 63.8317 48 66C48.6062 63.1979 49.1831 61.2061 51 59C50.9072 54.3697 51.9826 51.5658 57 52C56.3762 47.6612 58.1568 45.8333 62 44C60.5982 42.6492 59.8236 41.7457 59 40C56.59 45.4566 54.7898 47.21 49 44L53 50L52 51C46.801 47.9202 43.8551 47.8617 38 48C38.5293 52.5286 37.8047 55.8557 36 60C33.2751 56.6832 30.8253 54.0006 27 52L31 47C26.1357 49.6934 23.4687 49.1687 21 44C19.9846 45.1394 19.6913 45.6116 19 47C20.7525 48.3303 21.6697 49.2475 23 51C19.3262 51.3175 15.4166 53.2757 13 50L10 52L13 54C11.1009 56.5675 9.43151 58.9403 7 61C6.88678 64.8399 5.11492 66.893 3 70L7 67C5.75543 72.442 3.90574 77.3893 5 83C3.3821 84.314 3.30674 84.8772 3 87C7.73981 83.1041 11.1886 83.8807 17 84L17 78C21.3443 78.0509 24.1484 79.151 28 81L26 77C28.3541 76.2508 29.9495 75.3979 32 74C31.2069 83.4657 40.6372 82.9911 48 85.2824C51.0558 86.2334 54.1527 86.6821 55 90C58.2745 89.686 60.1007 90.4587 63 92L62 89C66.4481 88.7969 67.3463 86.0983 68 82L71 83C70.0193 80.1685 69.8119 77.987 70 75C77.3495 76.1999 74.4614 80.3727 72.5802 85.2855C70.8253 89.8687 71.0079 92.5636 67 96C67.5037 104.843 57.2341 111.68 49 111C48.4549 112.635 48.6352 112.455 47 113C51.2151 114.769 56.4645 114 61 114L87 114L87 19C77.4866 19.8358 65.1951 25.7187 59 33z"/>
<path style="fill:#55aaaa; stroke:none;" d="M38 20L39 21L38 20z"/>
<path style="fill:#007f7f; stroke:none;" d="M55 20L56 21L55 20z"/>
<path style="fill:#000000; stroke:none;" d="M65 20L66 21L65 20M63 21L64 22L63 21z"/>
<path style="fill:#007f7f; stroke:none;" d="M77 21L78 22L77 21M31 22L32 23L31 22z"/>
<path style="fill:#38a98d; stroke:none;" d="M44.3333 22.6667C44.2778 22.7222 44.2222 23.7778 44.6667 23.3333C44.7222 23.2778 44.7778 22.2222 44.3333 22.6667z"/>
<path style="fill:#2dbb8e; stroke:none;" d="M53 22L53 26C53.7102 24.2405 53.7102 23.7595 53 22z"/>
<path style="fill:#3fbf9f; stroke:none;" d="M60.3333 22.6667C60.2778 22.7222 60.2222 23.7778 60.6667 23.3333C60.7222 23.2778 60.7778 22.2222 60.3333 22.6667z"/>
<path style="fill:#000000; stroke:none;" d="M61 22L62 23L61 22z"/>
<path style="fill:#00ffff; stroke:none;" d="M75 22L76 23L75 22z"/>
<path style="fill:#0cc79e; stroke:none;" d="M54 26C55.7968 26 55.5215 25.9857 57 25C60.9123 29.4772 68.4476 25.8546 73 24C69.3484 21.8961 54.9928 21.3671 54 26z"/>
<path style="fill:#000000; stroke:none;" d="M59 23L60 24L59 23z"/>
<path style="fill:#00ffff; stroke:none;" d="M58 24L59 25L58 24z"/>
<path style="fill:#0cc0aa; stroke:none;" d="M19 29C23.665 28.7446 26.239 29.0754 30 32C40.6009 26.1045 54.7405 32.771 66 28C61.5569 26.1314 56.4265 27.5224 52 26C46.7682 27.2456 41.323 27.3113 36 26.5008C30.0803 25.5994 22.9647 23.0233 19 29z"/>
<path style="fill:#00ffff; stroke:none;" d="M56 25L57 26L56 25z"/>
<path style="fill:#339999; stroke:none;" d="M33.6667 26.3333C33.2222 26.7778 34.2778 26.7222 34.3333 26.6667C34.7778 26.2223 33.7222 26.2778 33.6667 26.3333z"/>
<path style="fill:#00ffff; stroke:none;" d="M67 26L68 27L67 26M64 28L65 29L64 28z"/>
<path style="fill:#7f7f7f; stroke:none;" d="M74 29L75 30L74 29z"/>
<path style="fill:#0cbab6; stroke:none;" d="M59 33C60.1863 31.8137 60.5279 31.4162 61 30L31 30L31 32C38.8677 32.6209 46.3118 33.9257 54 35.6258C56.959 36.2801 59.9846 38.1973 63 38.311C66.4505 38.441 69.7316 35.8214 73 34.9282C77.4567 33.7103 81.5266 34.4347 86 35C80.1871 24.6394 67.8083 32.5479 59 33z"/>
<path style="fill:#38a98d; stroke:none;" d="M79.6667 29.3333C79.2222 29.7778 80.2778 29.7222 80.3333 29.6667C80.7778 29.2222 79.7222 29.2778 79.6667 29.3333z"/>
<path style="fill:#3ca5a5; stroke:none;" d="M31 32C32.769 32.7789 34.0359 32.9124 36 33C34.231 32.2211 32.9641 32.0876 31 32z"/>
<path style="fill:#ff0000; stroke:none;" d="M33 33L34 34L33 33z"/>
<path style="fill:#fad202; stroke:none;" d="M34 33C27.1436 35.0887 16.6756 37.4551 16 46C19.3253 44.8627 21.2885 42.6646 24.2855 41.0077C27.8009 39.0642 35.2662 38.599 34 33z"/>
<path style="fill:#000000; stroke:none;" d="M35 33C34.8694 34.6405 34.6307 35.4563 34 37C36.1976 37.0647 37.8831 37.3809 40 38C38.7772 36.8048 38.58 36.6836 37 36C37.545 34.3649 37.3648 34.5451 39 34C37.494 33.317 36.6852 33.1741 35 33z"/>
<path style="fill:#fbd401; stroke:none;" d="M37 34L37 36L40 37C34.7281 36.6907 30.1714 37.8837 33 44C31.6757 43.1671 30.2318 42.0002 28.6898 41.5887C20.5144 39.4075 20.2607 51.7678 27.8403 49.4082C28.8952 49.0798 30.3141 47.5579 31 47L27 52C30.1178 54.395 32.605 56.8822 35 60C37.9136 56.6646 40.3372 50.8954 36 48C37.8318 48.0313 37.5587 47.9205 39 49C44.534 47.6012 46.9177 48.8094 52 51C51.5679 48.0225 50.7753 46.4418 49 44C53.9035 47.9882 58.2142 46.8068 58 40C59.3389 42.0663 59.6348 42.5246 62 43C59.1183 44.7034 57.4866 46.0008 56 49L66 50C66 46.7394 65.8566 46.4641 68 47C65.5499 39.8574 56.3475 35.0507 49 37C46.3348 33.2271 41.2729 33.5232 37 34z"/>
<path style="fill:#d2b42d; stroke:none;" d="M40 33C41.506 33.683 42.3148 33.8259 44 34C42.494 33.317 41.6852 33.1741 40 33z"/>
<path style="fill:#000000; stroke:none;" d="M44 33C45.2484 33.6848 45.5484 33.7488 47 34C45.7516 33.3152 45.4516 33.2512 44 33z"/>
<path style="fill:#7f7f7f; stroke:none;" d="M85 33L86 34L85 33z"/>
<path style="fill:#b9b92e; stroke:none;" d="M35 34L36 35L35 34z"/>
<path style="fill:#bfbf3f; stroke:none;" d="M47 34L48 35L47 34z"/>
<path style="fill:#000000; stroke:none;" d="M49 37L54 36C51.6996 35.0843 50.6232 35.1207 49 37z"/>
<path style="fill:#00ffff; stroke:none;" d="M70 35L71 36L70 35z"/>
<path style="fill:#ffff55; stroke:none;" d="M33 36L34 37L33 36z"/>
<path style="fill:#31a2a2; stroke:none;" d="M56 36C57.2483 36.6848 57.5484 36.7488 59 37C57.7517 36.3152 57.4516 36.2512 56 36z"/>
<path style="fill:#000000; stroke:none;" d="M32 37L33 38L32 37M48 37L49 38L48 37z"/>
<path style="fill:#007f7f; stroke:none;" d="M66 37L67 38L66 37z"/>
<path style="fill:#000000; stroke:none;" d="M31 38L32 39L31 38z"/>
<path style="fill:#bfbf3f; stroke:none;" d="M41 38L42 39L41 38z"/>
<path style="fill:#000000; stroke:none;" d="M30 39L26 40C27.6481 40.9241 29.1749 41.4494 31 42C30.7622 40.6421 30.701 40.0515 30 39M47 39L46 43C46.9536 41.4186 47.1973 40.8108 47 39z"/>
<path style="fill:#ffaa55; stroke:none;" d="M17 40L18 41L17 40z"/>
<path style="fill:#000000; stroke:none;" d="M23 40L23 42L25 42C24.4549 40.3648 24.6352 40.5451 23 40z"/>
<path style="fill:#aaaa55; stroke:none;" d="M24 40L25 41L24 40z"/>
<path style="fill:#7f7f00; stroke:none;" d="M25 40L26 41L25 40z"/>
<path style="fill:#c8a336; stroke:none;" d="M30 40L31 41L30 40z"/>
<path style="fill:#000000; stroke:none;" d="M42 40L42 43C43.1247 41.3279 43.1247 41.6721 42 40z"/>
<path style="fill:#ff7f00; stroke:none;" d="M42 41L43 42L42 41z"/>
<path style="fill:#ffff7f; stroke:none;" d="M44 41L45 42L44 41z"/>
<path style="fill:#000000; stroke:none;" d="M22 42L23 43L22 42z"/>
<path style="fill:#bfbf3f; stroke:none;" d="M30 42L31 43L30 42z"/>
<path style="fill:#7f7f00; stroke:none;" d="M31 42L32 43L31 42z"/>
<path style="fill:#aaaa55; stroke:none;" d="M45 42L46 43L45 42z"/>
<path style="fill:#cfbf2f; stroke:none;" d="M15.3333 43.6667C15.2778 43.7222 15.2222 44.7778 15.6667 44.3333C15.7222 44.2778 15.7778 43.2222 15.3333 43.6667z"/>
<path style="fill:#ff0000; stroke:none;" d="M21 43L22 44L21 43z"/>
<path style="fill:#aaaa00; stroke:none;" d="M31.6667 43.3333C31.2222 43.7778 32.2778 43.7222 32.3333 43.6667C32.7778 43.2222 31.7222 43.2778 31.6667 43.3333z"/>
<path style="fill:#000000; stroke:none;" d="M41 43L42 44L41 43M40 44L41 45L40 44z"/>
<path style="fill:#ff7f00; stroke:none;" d="M62 44L63 45L62 44z"/>
<path style="fill:#000000; stroke:none;" d="M63 44L64 45L63 44z"/>
<path style="fill:#f1bb06; stroke:none;" d="M9 54C5.17821 56.1873 5.91226 58.3396 9 61C10.2833 58.0912 14.6051 54.0126 10 53C12.2083 50.5145 13.7505 48.0804 15 45C10.6838 46.2226 6.43058 49.3648 9 54z"/>
<path style="fill:#d4bf2a; stroke:none;" d="M18.6667 45.3333C18.2222 45.7778 19.2778 45.7222 19.3333 45.6667C19.7778 45.2222 18.7222 45.2778 18.6667 45.3333z"/>
<path style="fill:#000000; stroke:none;" d="M32 47L35 47L34 45C32.3648 45.5451 32.5451 45.3648 32 47z"/>
<path style="fill:#bfbf3f; stroke:none;" d="M39 45L40 46L39 45z"/>
<path style="fill:#ff7f00; stroke:none;" d="M18 46L19 47L18 46z"/>
<path style="fill:#000000; stroke:none;" d="M39 46L40 47L39 46z"/>
<path style="fill:#d0b92e; stroke:none;" d="M66 46L66 49C66.6961 47.4463 66.6961 47.5537 66 46z"/>
<path style="fill:#f6c903; stroke:none;" d="M13 53L23 50C18.7472 45.6613 14.2195 47.152 13 53z"/>
<path style="fill:#000000; stroke:none;" d="M36 47L37 48L36 47z"/>
<path style="fill:#cc9933; stroke:none;" d="M37.6667 47.3333C37.2222 47.7778 38.2778 47.7222 38.3333 47.6667C38.7778 47.2222 37.7222 47.2778 37.6667 47.3333z"/>
<path style="fill:#a9910c; stroke:none;" d="M46 47L47 48L46 47z"/>
<path style="fill:#ddbc1b; stroke:none;" d="M52.3333 48.6667C52.2778 48.7222 52.2222 49.7778 52.6667 49.3333C52.7222 49.2778 52.7778 48.2222 52.3333 48.6667z"/>
<path style="fill:#f5c604; stroke:none;" d="M55 48C55.6128 49.6615 56.0427 50.4833 57 52C51.7341 50.8024 50.2353 54.1587 51 59C48.6767 60.8754 48.4063 63.0762 48 66C50.4136 63.9714 51.0824 63.1305 51 60C54.5487 61.4092 56.8741 61.3597 59 58C61.1884 60.9398 64.1774 62.6881 67 65C68.2631 64.0502 69.4728 63.2839 70.4722 62.0316C79.177 51.1243 61.4661 49.8171 55 48z"/>
<path style="fill:#e5b233; stroke:none;" d="M12.6667 49.3333C12.2222 49.7778 13.2778 49.7222 13.3333 49.6667C13.7778 49.2222 12.7222 49.2778 12.6667 49.3333z"/>
<path style="fill:#ffffff; stroke:none;" d="M43.1435 49.8511C37.6535 51.6495 41.6171 58.7901 46.6821 56.392C51.0062 54.3446 47.1918 48.5249 43.1435 49.8511z"/>
<path style="fill:#bfbfbf; stroke:none;" d="M46 49L47 50L46 49z"/>
<path style="fill:#aaaa55; stroke:none;" d="M7 50L8 51L7 50z"/>
<path style="fill:#dcb607; stroke:none;" d="M18 50C19.769 50.7789 21.0359 50.9124 23 51C21.231 50.2211 19.9641 50.0876 18 50z"/>
<path style="fill:#7f7f00; stroke:none;" d="M18 51L19 52L18 51z"/>
<path style="fill:#000000; stroke:none;" d="M58 52C58.5451 53.6352 58.3648 53.4549 60 54C59.4549 52.3648 59.6352 52.5451 58 52z"/>
<path style="fill:#ffffff; stroke:none;" d="M6 80C9.04172 81.2846 11.7028 81.8499 15 82L17 71C17.5618 72.8006 17.8241 74.1218 18 76C20.6478 75.9924 23.4381 76.1627 25.9961 75.3472C44.2212 69.5375 26.0975 42.6719 13.6489 56.3943C11.5393 58.7198 10.608 62.0612 9.72145 65C8.23852 69.916 7.03757 74.9731 6 80z"/>
<path style="fill:#000000; stroke:none;" d="M65 53L64 54C65.1394 55.0155 65.6115 55.3087 67 56C66.3087 54.6116 66.0154 54.1394 65 53z"/>
<path style="fill:#666600; stroke:none;" d="M38 55L39 56L38 55z"/>
<path style="fill:#000000; stroke:none;" d="M60 55L60 57C61.6351 56.455 61.4549 56.6352 62 55L60 55z"/>
<path style="fill:#b98b17; stroke:none;" d="M37 56L38 57L37 56z"/>
<path style="fill:#000000; stroke:none;" d="M68 56C68.5451 57.6352 68.3648 57.4549 70 58C69.4549 56.3648 69.6352 56.5451 68 56z"/>
<path style="fill:#7f7f00; stroke:none;" d="M10 57L11 58L10 57z"/>
<path style="fill:#7f7f7f; stroke:none;" d="M12 57L13 58L12 57z"/>
<path style="fill:#ededed; stroke:none;" d="M43 57C44.506 57.683 45.3148 57.8259 47 58C45.494 57.317 44.6852 57.1741 43 57z"/>
<path style="fill:#ffffff; stroke:none;" d="M34 80C36.1297 80.2624 39.3504 81.2997 41.2724 79.9329C44.3847 77.7196 48.0627 63.786 45.9329 60.5139C41.9962 54.466 37.8635 61.3697 36.8495 65.0008L35.1551 71C34.3766 74.0093 34.0643 76.9029 34 80z"/>
<path style="fill:#eaaa08; stroke:none;" d="M1 72C2.87281 72.1664 4.19579 72.4455 6 73L7 67L3 70C6.12314 66.3065 7.34597 63.7431 6 59C0.853992 61.77 1.01471 66.6679 1 72z"/>
<path style="fill:#916d00; stroke:none;" d="M9 59L10 60L9 59z"/>
<path style="fill:#a9a9a9; stroke:none;" d="M11 59L12 60L11 59z"/>
<path style="fill:#bfbfbf; stroke:none;" d="M46 59L47 60L46 59z"/>
<path style="fill:#ff0000; stroke:none;" d="M70 59L71 60L70 59z"/>
<path style="fill:#ffff00; stroke:none;" d="M7 60L8 61L7 60z"/>
<path style="fill:#999999; stroke:none;" d="M47 60L48 61L47 60M33 61L34 62L33 61z"/>
<path style="fill:#af8f0f; stroke:none;" d="M54 61L55 62L54 61z"/>
<path style="fill:#9f7f1f; stroke:none;" d="M62 61L63 62L62 61z"/>
<path style="fill:#d0a22e; stroke:none;" d="M72.6667 61.3333C72.2222 61.7778 73.2778 61.7222 73.3333 61.6667C73.7778 61.2222 72.7222 61.2778 72.6667 61.3333z"/>
<path style="fill:#bbbbbb; stroke:none;" d="M10 62L11 63L10 62z"/>
<path style="fill:#9f9f9f; stroke:none;" d="M20 62L21 63L20 62z"/>
<path style="fill:#000000; stroke:none;" d="M19 66L24 67C24.2021 65.1501 24.2021 63.8499 24 62C21.2183 62.8125 20.3726 63.4527 19 66z"/>
<path style="fill:#7f7f7f; stroke:none;" d="M37 62L38 63L37 62z"/>
<path style="fill:#eeb407; stroke:none;" d="M71 74L76 74C75.998 70.9895 76.8987 64.883 73.6103 63.1759C67.7045 60.11 70.568 72.1047 71 74z"/>
<path style="fill:#bf7f3f; stroke:none;" d="M74 62L75 63L74 62z"/>
<path style="fill:#ffff00; stroke:none;" d="M1 63L2 64L1 63z"/>
<path style="fill:#aaaaaa; stroke:none;" d="M24 63L25 64L24 63z"/>
<path style="fill:#7f7f7f; stroke:none;" d="M54 63L55 64L54 63z"/>
<path style="fill:#ffffff; stroke:none;" d="M46 83L55 85C55.4067 80.0202 56.2428 75.4691 60 72C58.2896 76.5337 57.2114 81.1514 57 86C60.0251 86.5621 62.9221 86.9364 66 87C66.492 80.9764 70.1459 72.9182 66.821 67.189C63.6671 61.7545 55.3818 62.0037 51.3943 66.2284C47.4826 70.3727 46.4459 77.541 46 83z"/>
<path style="fill:#ffff00; stroke:none;" d="M7 64L8 65L7 64z"/>
<path style="fill:#999999; stroke:none;" d="M46 64L47 65L46 64z"/>
<path style="fill:#c4c4c4; stroke:none;" d="M64 64L65 65L64 64z"/>
<path style="fill:#ffff00; stroke:none;" d="M68 64L69 65L68 64z"/>
<path style="fill:#aaaa55; stroke:none;" d="M69 64L70 65L69 64z"/>
<path style="fill:#aaaaaa; stroke:none;" d="M24 65L25 66L24 65z"/>
<path style="fill:#555555; stroke:none;" d="M51 65L52 66L51 65z"/>
<path style="fill:#b9b9b9; stroke:none;" d="M36 66L37 67L36 66z"/>
<path style="fill:#b6b6b6; stroke:none;" d="M18.3333 67.6667C18.2778 67.7222 18.2222 68.7778 18.6667 68.3333C18.7222 68.2778 18.7778 67.2222 18.3333 67.6667z"/>
<path style="fill:#b0b0b0; stroke:none;" d="M33 67L34 68L33 67z"/>
<path style="fill:#7f7f7f; stroke:none;" d="M67 67L68 68L67 67z"/>
<path style="fill:#bfbfbf; stroke:none;" d="M49 68L50 69L49 68z"/>
<path style="fill:#7f7f7f; stroke:none;" d="M8 69L9 70L8 69z"/>
<path style="fill:#ffff00; stroke:none;" d="M0 70L1 71L0 70z"/>
<path style="fill:#8d8d8d; stroke:none;" d="M68 70L69 71L68 70z"/>
<path style="fill:#000000; stroke:none;" d="M0 71L0 75C1.27409 73.6589 2.04069 72.5969 3 71L0 71z"/>
<path style="fill:#ffff00; stroke:none;" d="M3.33333 71.6667C3.27778 71.7222 3.22222 72.7778 3.66667 72.3333C3.72223 72.2778 3.77777 71.2222 3.33333 71.6667z"/>
<path style="fill:#999999; stroke:none;" d="M17 71L18 72L17 71z"/>
<path style="fill:#d0d0d0; stroke:none;" d="M68 71L68 74C68.6961 72.4463 68.6961 72.5537 68 71z"/>
<path style="fill:#7f5f1f; stroke:none;" d="M70 71L71 72L70 71z"/>
<path style="fill:#b69148; stroke:none;" d="M2 72L3 73L2 72z"/>
<path style="fill:#ff0000; stroke:none;" d="M4 72L5 73L4 72z"/>
<path style="fill:#e8e8e8; stroke:none;" d="M17 72C16.0143 73.4785 16 73.2032 16 75C17.7662 74.0214 17.9555 73.7782 17 72z"/>
<path style="fill:#3f3f00; stroke:none;" d="M70 72L71 73L70 72z"/>
<path style="fill:#e0910d; stroke:none;" d="M2 82C-0.669205 85.8315 -0.0958176 89.6072 4 92C3.56954 88.505 2.86559 85.9298 5 83C4.51153 79.5781 4.75753 76.4317 5 73C0.455289 73.7892 -1.78626 78.6873 2 82z"/>
<path style="fill:#a9a9a9; stroke:none;" d="M7 73L8 74L7 73z"/>
<path style="fill:#7f7f7f; stroke:none;" d="M34 73L35 74L34 73z"/>
<path style="fill:#7f7f00; stroke:none;" d="M70 73L71 74L70 73z"/>
<path style="fill:#b2b2b2; stroke:none;" d="M28 74L29 75L28 74z"/>
<path style="fill:#6d4824; stroke:none;" d="M31 74L32 75L31 74z"/>
<path style="fill:#9c9c9c; stroke:none;" d="M68 74L69 75L68 74z"/>
<path style="fill:#7f7f7f; stroke:none;" d="M17 75L18 76L17 75z"/>
<path style="fill:#bfbfbf; stroke:none;" d="M26 75L27 76L26 75z"/>
<path style="fill:#e1930c; stroke:none;" d="M26 77C28.5186 81.4715 33.4661 83.3392 36 88L39 88L41 83L31 80L32 75L26 77z"/>
<path style="fill:#9f9f9f; stroke:none;" d="M43 75L44 76L43 75z"/>
<path style="fill:#e8a509; stroke:none;" d="M70 75C69.3125 79.4844 69.8147 81.8828 74 84C74.8996 80.9592 74.992 78.1691 75 75L70 75z"/>
<path style="fill:#996600; stroke:none;" d="M28 76L29 77L28 76z"/>
<path style="fill:#c2c2c2; stroke:none;" d="M56 76L57 77L56 76z"/>
<path style="fill:#7f5f1f; stroke:none;" d="M4 77L5 78L4 77z"/>
<path style="fill:#c2c2c2; stroke:none;" d="M6 77L7 78L6 77z"/>
<path style="fill:#d9d9d9; stroke:none;" d="M33.3333 77.6667C33.2778 77.7222 33.2222 78.7778 33.6667 78.3333C33.7222 78.2778 33.7778 77.2222 33.3333 77.6667z"/>
<path style="fill:#bf943f; stroke:none;" d="M75 77L75 82C75.8299 79.9695 75.8299 79.0305 75 77z"/>
<path style="fill:#c6c6c6; stroke:none;" d="M15 78L16 79L15 78z"/>
<path style="fill:#e2950c; stroke:none;" d="M17 78C17.1204 81.6916 17.3133 83.7774 21 85C22.705 82.644 24.181 80.7912 25 78L17 78z"/>
<path style="fill:#bbbbbb; stroke:none;" d="M67 78L68 79L67 78z"/>
<path style="fill:#bf7f3f; stroke:none;" d="M25.3333 79.6667C25.2778 79.7222 25.2222 80.7778 25.6667 80.3333C25.7222 80.2778 25.7778 79.2222 25.3333 79.6667z"/>
<path style="fill:#555500; stroke:none;" d="M31 79L32 80L31 79z"/>
<path style="fill:#7f7f7f; stroke:none;" d="M6 80L7 81L6 80z"/>
<path style="fill:#ff0000; stroke:none;" d="M28 80L29 81L28 80z"/>
<path style="fill:#aaaaaa; stroke:none;" d="M37 80L38 81L37 80z"/>
<path style="fill:#9f9f9f; stroke:none;" d="M55 80L56 81L55 80z"/>
<path style="fill:#000000; stroke:none;" d="M24 81L25 82L24 81z"/>
<path style="fill:#de8b0e; stroke:none;" d="M33 89C35.6457 90.532 38.0107 91.3581 41 92C39.3655 89.4547 38.0065 89.2206 35 89C34.0844 85.7675 32.4885 82.8928 28.9961 81.7971C25.6924 80.7605 21.0491 83.2005 20.8318 86.9352C20.4282 93.8724 30.1723 92.359 33 89z"/>
<path style="fill:#000000; stroke:none;" d="M29.6667 81.3333C29.2222 81.7778 30.2778 81.7222 30.3333 81.6667C30.7778 81.2222 29.7222 81.2778 29.6667 81.3333M0.666667 82.3333C0.222228 82.7778 1.27778 82.7222 1.33333 82.6667C1.77778 82.2222 0.722225 82.2778 0.666667 82.3333z"/>
<path style="fill:#996633; stroke:none;" d="M16 82L17 83L16 82z"/>
<path style="fill:#ffff00; stroke:none;" d="M22.6667 82.3333C22.2222 82.7778 23.2778 82.7222 23.3333 82.6667C23.7778 82.2222 22.7222 82.2778 22.6667 82.3333z"/>
<path style="fill:#000000; stroke:none;" d="M31 82L32 83L31 82z"/>
<path style="fill:#7f3f00; stroke:none;" d="M38 82L39 83L38 82z"/>
<path style="fill:#919191; stroke:none;" d="M66 82L67 83L66 82z"/>
<path style="fill:#dd890e; stroke:none;" d="M68 82C67.1802 86.0513 63.8552 88.3616 63 92C60.0493 89.8897 58.5489 89.1993 55 90C53.9788 85.2094 46.2801 84.371 42 83C41.1055 85.0417 40.4637 86.8278 40 89C43.7661 91.9857 45.9014 95.1258 51 94C54.4392 100.237 65.8006 98.1158 70.2585 93.4012C73.7457 89.7133 71.8221 84.1076 68 82z"/>
<path style="fill:#db830f; stroke:none;" d="M14 94C15.8767 99.6728 22.8947 98.9859 28 99C27.5613 93.3176 24.4245 91.5596 19 91C18.585 85.5606 10.6167 79.5031 5.61883 84.6065C1.01241 89.3102 10.4213 94.0995 14 94z"/>
<path style="fill:#000000; stroke:none;" d="M21.3333 83.6667C21.2778 83.7222 21.2222 84.7778 21.6667 84.3333C21.7222 84.2778 21.7778 83.2222 21.3333 83.6667z"/>
<path style="fill:#aa5500; stroke:none;" d="M32 83L33 84L32 83z"/>
<path style="fill:#000000; stroke:none;" d="M33 83L34 86C34.4009 84.2337 34.2892 84.4426 33 83z"/>
<path style="fill:#a9a9a9; stroke:none;" d="M48 83L49 84L48 83z"/>
<path style="fill:#aa5500; stroke:none;" d="M71 83L72 84L71 83z"/>
<path style="fill:#7f7f00; stroke:none;" d="M17 84L18 85L17 84z"/>
<path style="fill:#ffff00; stroke:none;" d="M33 84L34 85L33 84M41 84L42 85L41 84z"/>
<path style="fill:#996600; stroke:none;" d="M45 84L46 85L45 84z"/>
<path style="fill:#cccccc; stroke:none;" d="M56.3333 84.6667C56.2778 84.7222 56.2222 85.7778 56.6667 85.3333C56.7222 85.2778 56.7778 84.2222 56.3333 84.6667z"/>
<path style="fill:#000000; stroke:none;" d="M18 85L19 91L23 91C21.5304 88.8172 21.0325 87.6216 21 85L18 85M40 85L41 86L40 85z"/>
<path style="fill:#7f552a; stroke:none;" d="M67 85L68 86L67 85z"/>
<path style="fill:#ff0000; stroke:none;" d="M35 86L36 87L35 86z"/>
<path style="fill:#000000; stroke:none;" d="M39 86C37.2762 87.0555 37.0793 87.0358 35 87C36.5607 89.1435 40.2553 89.33 39 86z"/>
<path style="fill:#999999; stroke:none;" d="M59 86L60 87L59 86z"/>
<path style="fill:#ff0000; stroke:none;" d="M3 87L4 88L3 87z"/>
<path style="fill:#d8d8d8; stroke:none;" d="M63.6667 87.3333C63.2222 87.7778 64.2778 87.7222 64.3333 87.6667C64.7778 87.2222 63.7222 87.2778 63.6667 87.3333z"/>
<path style="fill:#000000; stroke:none;" d="M3 88L4 89L3 88M0 89L0 114L39 114C37.7516 113.315 37.4516 113.251 36 113C37.1863 111.814 37.5279 111.416 38 110C34.5779 111.067 32.7654 111.393 30 109C24.397 111.734 19.3786 107.375 16 103L21 103L14 99L16 103C10.3299 101.857 5.81077 97.99 3 93L7 92C5.86065 90.9846 5.38843 90.6913 4 90C3.45494 91.6352 3.63516 91.4549 2 92C1.30866 90.6116 1.01544 90.1394 0 89z"/>
<path style="fill:#aa5555; stroke:none;" d="M4 89L5 90L4 89z"/>
<path style="fill:#000000; stroke:none;" d="M33 89C30.9878 90.7581 29.4187 91.916 27 93C28.1662 95.7401 28.8099 98.0285 29 101L32 100C30.1625 95.3053 32.1324 93.4438 33 89M40 89L41 90L40 89z"/>
<path style="fill:#cc9933; stroke:none;" d="M41 89C41.6836 90.58 41.8048 90.7772 43 92C42.3164 90.42 42.1952 90.2228 41 89z"/>
<path style="fill:#b67612; stroke:none;" d="M62.6667 89.3333C62.2222 89.7778 63.2778 89.7222 63.3333 89.6667C63.7778 89.2222 62.7222 89.2778 62.6667 89.3333z"/>
<path style="fill:#d57412; stroke:none;" d="M32 100C30.2032 100 30.4785 100.014 29 101L29 95C28.317 96.506 28.1741 97.3148 28 99C22.8268 98.9572 17.7445 98.8677 14 95C12.8046 95.5977 13.0226 95.4661 12 97C10.7481 94.9768 9.59834 93.2779 9 91C-2.04595 94.0584 10.1682 101.944 16 103C15.3872 101.339 14.9573 100.517 14 99C16.4418 100.775 18.0225 101.568 21 102L17 103C18.3512 107.103 25.1463 113.211 29 109C32.1931 111.73 34.2242 111.732 38 110C37.0143 111.479 37 111.203 37 113L49 113C48.3872 111.339 47.9573 110.517 47 109C50.0107 107.906 52.8758 105.958 56 105.237C58.3014 104.706 60.6615 105.732 62.8912 105.152C66.9031 104.108 66.9198 99.3194 67 96C59.6714 98.8941 53.0852 96.0615 46 98C43.2197 88.2323 26.1005 88.6965 32 100z"/>
<path style="fill:#000000; stroke:none;" d="M17 91L18 92L17 91z"/>
<path style="fill:#ffff00; stroke:none;" d="M23 91L24 92L23 91z"/>
<path style="fill:#000000; stroke:none;" d="M24 91L25 92L24 91M52 91L53 92L52 91M8 92L9 93L8 92z"/>
<path style="fill:#ffff00; stroke:none;" d="M15 92L16 93L15 92z"/>
<path style="fill:#7f7f00; stroke:none;" d="M16 92L17 93L16 92z"/>
<path style="fill:#000000; stroke:none;" d="M25.6667 92.3333C25.2222 92.7778 26.2778 92.7222 26.3333 92.6667C26.7778 92.2222 25.7222 92.2778 25.6667 92.3333z"/>
<path style="fill:#7f7f00; stroke:none;" d="M43 92L44 93L43 92z"/>
<path style="fill:#ffff00; stroke:none;" d="M51 92L52 93L51 92M3 93L4 94L3 93z"/>
<path style="fill:#000000; stroke:none;" d="M9 93L10 94L9 93M14 93L15 94L14 93M44 93L45 94L44 93M63 93L64 94L63 93M10 94L11 95L10 94z"/>
<path style="fill:#ffff00; stroke:none;" d="M13 94L14 95L13 94z"/>
<path style="fill:#000000; stroke:none;" d="M45 94L46 95L45 94M50 94C49.9524 96.3301 49.7966 96.0061 52 97C51.3087 95.6116 51.0154 95.1393 50 94M11 95C11.5451 96.6352 11.3648 96.4549 13 97L13 95L11 95M46 95L46 98L48 97C47.4549 95.3648 47.6352 95.5451 46 95z"/>
<path style="fill:#bf7f2a; stroke:none;" d="M47 95C48.2228 96.1952 48.42 96.3164 50 97C48.7772 95.8048 48.58 95.6836 47 95z"/>
<path style="fill:#000000; stroke:none;" d="M64 95L64 97L66 97L66 95L64 95z"/>
<path style="fill:#ffff00; stroke:none;" d="M66 95L67 96L66 95z"/>
<path style="fill:#ff0000; stroke:none;" d="M67 95L68 96L67 95z"/>
<path style="fill:#000000; stroke:none;" d="M52 97L53 98L52 97M62 97L63 98L62 97z"/>
<path style="fill:#ffff00; stroke:none;" d="M63 97L64 98L63 97z"/>
<path style="fill:#b27f33; stroke:none;" d="M67 97L67 100C67.6961 98.4463 67.6961 98.5537 67 97z"/>
<path style="fill:#7f7f00; stroke:none;" d="M13 98L14 99L13 98z"/>
<path style="fill:#000000; stroke:none;" d="M45 98L44 100C45.2627 99.0287 45.3919 99.3063 45 98z"/>
<path style="fill:#ffff00; stroke:none;" d="M54 98L55 99L54 98z"/>
<path style="fill:#000000; stroke:none;" d="M61 98L62 99L61 98M55 99C55.9357 100.949 56.3924 101.55 58 103L60 99C57.9148 99.5112 57.0319 99.6055 55 99z"/>
<path style="fill:#ffff00; stroke:none;" d="M34 100L35 101L34 100z"/>
<path style="fill:#000000; stroke:none;" d="M35 100L36 101L35 100z"/>
<path style="fill:#7f7f00; stroke:none;" d="M56 100L57 101L56 100z"/>
<path style="fill:#ffff00; stroke:none;" d="M10 101L11 102L10 101z"/>
<path style="fill:#ff7f7f; stroke:none;" d="M28 101L27 103C28.2627 102.029 28.3919 102.306 28 101z"/>
<path style="fill:#ff0000; stroke:none;" d="M37 101L38 102L37 101z"/>
<path style="fill:#000000; stroke:none;" d="M38 101L39 102L38 101M43 101C41.6468 101.712 41.455 101.815 40 102C41.1034 103.457 41.5434 103.897 43 105C43.1803 103.435 43.25 102.51 43 101z"/>
<path style="fill:#ff7f7f; stroke:none;" d="M12 102L13 103L12 102z"/>
<path style="fill:#7f7f00; stroke:none;" d="M16 103L17 104L16 103z"/>
<path style="fill:#ffff00; stroke:none;" d="M23 103L24 104L23 103z"/>
<path style="fill:#000000; stroke:none;" d="M24 103C25.7346 104.05 25.9315 104.046 28 104C26.494 103.317 25.6852 103.174 24 103z"/>
<path style="fill:#ff7f7f; stroke:none;" d="M16 104L17 105L16 104z"/>
<path style="fill:#000000; stroke:none;" d="M57.6667 104.333C57.2222 104.778 58.2778 104.722 58.3333 104.667C58.7778 104.222 57.7222 104.278 57.6667 104.333z"/>
<path style="fill:#c57821; stroke:none;" d="M56 105L60 108L61 105L60 104L56 105z"/>
<path style="fill:#7f7f00; stroke:none;" d="M27 105L28 106L27 105z"/>
<path style="fill:#bf7f3f; stroke:none;" d="M42 105L42 107L44 107C43.4549 105.365 43.6352 105.545 42 105z"/>
<path style="fill:#000000; stroke:none;" d="M52 106C53.6593 106.406 54.2418 106.309 56 106C54.3407 105.594 53.7582 105.691 52 106z"/>
<path style="fill:#ff7f7f; stroke:none;" d="M18 106L19 107L18 106z"/>
<path style="fill:#d57611; stroke:none;" d="M49 109L49 111C53.7893 111.891 57.462 110.915 59 106C55.1676 106.198 52.344 107.126 49 109z"/>
<path style="fill:#ffff00; stroke:none;" d="M60 106L61 107L60 106z"/>
<path style="fill:#b0753a; stroke:none;" d="M61.6667 106.333C61.2222 106.778 62.2778 106.722 62.3333 106.667C62.7778 106.222 61.7222 106.278 61.6667 106.333z"/>
<path style="fill:#aaaa55; stroke:none;" d="M28 107L29 108L28 107z"/>
<path style="fill:#000000; stroke:none;" d="M42 107C43.2484 107.685 43.5484 107.749 45 108C43.7516 107.315 43.4516 107.251 42 107M50 107L51 108L50 107z"/>
<path style="fill:#ffff00; stroke:none;" d="M51 107L52 108L51 107z"/>
<path style="fill:#aa5555; stroke:none;" d="M21 108L22 109L21 108z"/>
<path style="fill:#000000; stroke:none;" d="M40 108L39 110C40.2627 109.029 40.3919 109.306 40 108M45 108L46 109L45 108z"/>
<path style="fill:#ff0000; stroke:none;" d="M46 108L47 109L46 108z"/>
<path style="fill:#000000; stroke:none;" d="M49 108L50 109L49 108z"/>
<path style="fill:#7f7f00; stroke:none;" d="M38 109L39 110L38 109z"/>
<path style="fill:#000000; stroke:none;" d="M47.6667 109.333C47.2222 109.778 48.2778 109.722 48.3333 109.667C48.7778 109.222 47.7222 109.278 47.6667 109.333z"/>
<path style="fill:#ff0000; stroke:none;" d="M48 110L49 111L48 110z"/>
<path style="fill:#ff7f7f; stroke:none;" d="M36 112L37 113L36 112z"/>
<path style="fill:#c07627; stroke:none;" d="M39 113C41.6127 114.098 44.1645 113.993 47 114C44.3873 112.902 41.8355 113.007 39 113z"/>
</svg>
